<svg xmlns="http://www.w3.org/2000/svg" viewBox="0 0 50 50"><path d="M12 3.045l-7 3V6H3v38h2l7 3h2v-3h5.885l-.2-2H14V8h12v1a5.95 5.95 0 012 .35V6H14V3.045h-2zM36 8c-1.654 0-3 1.346-3 3v8c0 1.654 1.346 3 3 3h8c1.654 0 3-1.346 3-3v-8c0-1.654-1.346-3-3-3h-8zm-10 3c-2.206 0-4 1.794-4 4s1.794 4 4 4 4-1.794 4-4-1.794-4-4-4zm13 1h2v2h2v2h-2v2h-2v-2h-2v-2h2v-2zm-13 8c-3.859 0-7 3.386-7 7.547v7.07l2.06 1.03L22.095 46h7.81l1.035-10.354L33 34.617v-7.07C33 23.386 29.859 20 26 20zm-16 5a1 1 0 110 2 1 1 0 010-2z" fill="#5B5B5B"/></svg>