<svg xmlns="http://www.w3.org/2000/svg" viewBox="0 0 50 50"><path d="M25 0C15.625 0 8 5.977 8 13.313c0 2.98.77 4.39 1.5 5.78.656 1.25 1.258 2.458 1.438 4.97C11.94 22.422 13 20.59 13 18.405c0-2.816-.96-6.093-.969-6.125a1.013 1.013 0 01.688-1.25 1.016 1.016 0 011.25.688c.043.144 1.031 3.578 1.031 6.687 0 2.887-1.398 5.184-2.531 7.032-.395.644-.766 1.226-1.031 1.78.609.895 1.863 1.25 3.874 1.563 2.086.324 4.688.703 4.688 3.407 0 .546 1.992 1.906 5 1.906s5-1.36 5-1.907c0-2.765 2.613-3.152 4.719-3.468 1.984-.301 3.238-.625 3.843-1.5-.269-.551-.636-1.137-1.03-1.782C36.397 23.59 35 21.294 35 18.407c0-3.11.988-6.544 1.031-6.688.157-.531.719-.84 1.25-.688.528.156.844.719.688 1.25-.008.031-.969 3.309-.969 6.125 0 2.184 1.059 4.043 2.063 5.688.18-2.442.792-3.64 1.437-4.875.738-1.407 1.5-2.856 1.5-5.907C42 5.978 34.375 0 25 0zm-5.188 18c1.9 0 3.188 1.988 3.188 3.688 0 2.6-1.707 4.312-4.406 4.312C17.492 26 16 24.988 16 21.687c0-2.1 1.613-3.687 3.813-3.687zm10.375 0c2.2 0 3.813 1.586 3.813 3.688 0 3.3-1.492 4.312-2.594 4.312C28.707 26 27 24.29 27 21.687 27 19.988 28.29 18 30.188 18zM4.563 21.031c-1.117-.043-2.136.535-2.718 1.625a4.086 4.086 0 00-.313 3.032C.52 26.387 0 27.245 0 28.905c0 1.973 1.555 3.688 3.313 3.688.917 0 1.449-.266 1.812-.438.23-.105.313-.125.406-.125.14 0 .434.078 1.094.407l7.281 2.968c-.078-1.8-.234-3.843-.5-4.937-1.523-.34-2.797-.907-3.625-2.125a1.948 1.948 0 01-.156-1.969c.023-.047.07-.11.094-.156-.328-.125-.653-.262-.969-.375-.637-.23-.723-.469-.844-1.344-.133-.953-.332-2.379-2.218-3.219a3.099 3.099 0 00-1.125-.25zm40.876 0a3.277 3.277 0 00-1.157.25c-1.879.836-2.082 2.297-2.218 3.25-.122.875-.16 1.098-.844 1.344-.297.121-.606.246-.907.375.016.031.047.063.063.094a2.035 2.035 0 01-.156 2.031c-.852 1.23-2.235 1.738-3.782 2.063-.222 1.136-.316 3.074-.374 4.78l7.374-2.812c.594-.297.891-.375 1.032-.375.093 0 .176.051.406.157.363.171.895.406 1.813.406 1.757 0 3.312-1.719 3.312-3.688 0-1.582-.492-2.386-1.531-3.156.304-.988.191-2.148-.313-3.094-.582-1.086-1.597-1.668-2.718-1.625zM24.905 26c1.2 0 3.094 4.21 3.094 4.813 0 .699-.488 1.093-1.188 1.093-.8 0-1.707-2.207-1.906-2.906h-.093c-.7 2-1.32 3-1.72 3-.8 0-1.093-.508-1.093-1.406C22 28.992 23.707 26 24.906 26zm-9.375 4.813c.274 1.75.367 4.273.438 6.218.027.785.058 1.64.094 2C16.848 39.996 21.578 44 25 44c3.438 0 8.215-4.02 8.938-5.031.027-.293.074-1.235.093-2.063.059-2.32.13-4.511.344-6.093-.625.105-1.113.218-1.469.343-.129.79-.222 1.5-.312 2.157C31.964 37.94 31.41 40 25 40c-6.504 0-7.055-2.055-7.656-6.719-.082-.636-.164-1.332-.282-2.093a10.296 10.296 0 00-1.53-.375zm4.031 3.812c.317 1.953.75 2.844 2.438 3.188v-2.094c-.945-.258-1.781-.64-2.438-1.094zm10.813.063c-.645.433-1.465.78-2.375 1.03v2.063c1.61-.347 2.05-1.195 2.375-3.093zM24 36.062V38c.313.008.64 0 1 0s.688.008 1 0v-1.938c-.328.028-.66.032-1 .032-.34 0-.672-.004-1-.032zm12 1.376c-.04 1.507-.063 1.91-.156 2.187-.16.563-1.367 1.816-3.032 3.063 1.52.738 4.7 2.296 5.688 3 .113.124.27.68.375 1.03.363 1.231.965 3.282 3.313 3.282 1.558 0 2.39-.684 2.812-1.25.797-1.078.734-2.504.563-3.469.058-.023.097-.07.156-.093.992-.403 2.258-.903 2.562-2.657.168-.672.133-1.676-.437-2.5-.34-.484-.985-1.082-2.219-1.218-1.324-.145-2.203.617-2.813 1.156-.187.168-.472.465-.687.437-1.195-.55-5.543-2.683-6.125-2.968zm-22.031.093c-1.348.633-5.04 2.364-6.156 2.844-.02.008-.075.055-.094.063-.11-.028-.38-.274-.563-.438-.605-.55-1.414-1.336-2.875-1.188-1.12.126-1.734.645-2.062 1.063-.688.871-.696 1.988-.625 2.563.004.035.023.058.031.093.41 1.75 1.586 2.227 2.531 2.625.063.028.125.07.188.094-.16.938-.219 2.398.593 3.5.418.566 1.227 1.25 2.75 1.25 2.348 0 2.981-2.05 3.344-3.281.106-.352.242-.907.313-1 1.219-.813 4.777-2.551 5.812-3.063-1.648-1.234-2.84-2.46-3-2.937-.094-.328-.136-.852-.187-2.188z" fill="#5B5B5B"/></svg>